<svg xmlns="http://www.w3.org/2000/svg" viewBox="0 0 240 240" width="240" height="240" role="img" aria-label="Cartoon avatar for Alec Diallo">
  <defs>
    <linearGradient id="bg" x1="0" y1="0" x2="1" y2="1"><stop offset="0" stop-color="#eff6ff"/><stop offset="1" stop-color="#bfdbfe"/></linearGradient>
    <linearGradient id="shirt" x1="0" y1="0" x2="1" y2="1"><stop offset="0" stop-color="#2563eb"/><stop offset="1" stop-color="#1d4ed8"/></linearGradient>
    <filter id="shadow" x="-20%" y="-20%" width="140%" height="140%"><feDropShadow dx="0" dy="10" stdDeviation="10" flood-color="#0f172a" flood-opacity="0.16"/></filter>
  </defs>
  <rect width="240" height="240" rx="54" fill="url(#bg)"/>
  <circle cx="45" cy="52" r="28" fill="#fff" opacity=".55"/>
  <circle cx="203" cy="50" r="36" fill="#2563eb" opacity=".16"/>
  <path d="M29 196c34-18 72-20 111-8s60 11 78-1" fill="none" stroke="#fff" stroke-width="14" stroke-linecap="round" opacity=".55"/>
  <g filter="url(#shadow)">
    <path d="M57 222c9-42 33-67 65-67s56 25 65 67" fill="url(#shirt)"/>
    <path d="M96 154h52v27c0 15-12 27-26 27s-26-12-26-27z" fill="#f5d0b5"/>
    <path d="M75 93c7-31 28-49 55-47 26 2 43 21 43 50-29-17-59-21-98-3z" fill="#3f2d20"/><path d="M75 99c15-16 39-25 70-20 13 2 22 7 29 14l-3 20c-22-17-54-24-96-14z" fill="#3f2d20" opacity=".95"/>
    <ellipse cx="122" cy="113" rx="48" ry="55" fill="#f5d0b5"/>
    <g stroke="#172033" stroke-width="4" stroke-linecap="round" fill="none" opacity=".62"><path d="M94 100c8-5 17-5 25-2" /><path d="M130 98c8-4 17-4 25 2" /></g>
    <circle cx="103" cy="113" r="4.3" fill="#172033"/>
    <circle cx="141" cy="113" r="4.3" fill="#172033"/>
    <path d="M90 109h24m12 0h24M114 109c0 9-6 15-14 15s-14-6-14-15 6-14 14-14 14 5 14 14zm40 0c0 9-6 15-14 15s-14-6-14-15 6-14 14-14 14 5 14 14z" fill="none" stroke="#172033" stroke-width="3" stroke-linecap="round" opacity=".78"/>
    <circle cx="91" cy="128" r="7" fill="#f59eae" opacity=".24"/>
    <circle cx="153" cy="128" r="7" fill="#f59eae" opacity=".24"/>
    
    <path d="M107 137c9 9 22 9 31 0" fill="none" stroke="#172033" stroke-width="4" stroke-linecap="round" opacity=".72"/>
    <path d="M122 116c-2 8-4 13-6 17 4 2 9 2 13 0" fill="none" stroke="#172033" stroke-width="2.5" stroke-linecap="round" stroke-linejoin="round" opacity=".28"/>
  </g>
  <text x="24" y="218" font-family="Inter, Arial, sans-serif" font-size="16" font-weight="800" fill="#1d4ed8" opacity=".42">AD</text>
</svg>