<svg xmlns="http://www.w3.org/2000/svg" viewBox="0 0 240 240" width="240" height="240" role="img" aria-label="Cartoon avatar for Le Xu">
  <defs>
    <linearGradient id="bg" x1="0" y1="0" x2="1" y2="1"><stop offset="0" stop-color="#faf5ff"/><stop offset="1" stop-color="#e9d5ff"/></linearGradient>
    <linearGradient id="shirt" x1="0" y1="0" x2="1" y2="1"><stop offset="0" stop-color="#9333ea"/><stop offset="1" stop-color="#7e22ce"/></linearGradient>
    <filter id="shadow" x="-20%" y="-20%" width="140%" height="140%"><feDropShadow dx="0" dy="10" stdDeviation="10" flood-color="#0f172a" flood-opacity="0.16"/></filter>
  </defs>
  <rect width="240" height="240" rx="54" fill="url(#bg)"/>
  <circle cx="45" cy="52" r="28" fill="#fff" opacity=".55"/>
  <circle cx="203" cy="50" r="36" fill="#9333ea" opacity=".16"/>
  <path d="M29 196c34-18 72-20 111-8s60 11 78-1" fill="none" stroke="#fff" stroke-width="14" stroke-linecap="round" opacity=".55"/>
  <g filter="url(#shadow)">
    <path d="M57 222c9-42 33-67 65-67s56 25 65 67" fill="url(#shirt)"/>
    <path d="M96 154h52v27c0 15-12 27-26 27s-26-12-26-27z" fill="#f1c7a0"/>
    <path d="M70 121c0-44 20-76 52-76s51 32 51 76c0 33-14 60-51 60s-52-27-52-60z" fill="#5b341e"/><path d="M71 126c-7 18-9 35-4 50 9 8 23 12 38 10-22-15-31-35-34-60z" fill="#5b341e" opacity=".9"/><path d="M173 126c7 18 9 35 4 50-9 8-23 12-38 10 22-15 31-35 34-60z" fill="#5b341e" opacity=".9"/><path d="M78 96c10-30 27-44 49-43 21 1 35 17 40 43-19-5-36-17-48-36-8 18-22 30-41 36z" fill="#5b341e"/><circle cx="84" cy="126" r="4" fill="#9333ea"/><circle cx="160" cy="126" r="4" fill="#9333ea"/>
    <ellipse cx="122" cy="113" rx="48" ry="55" fill="#f1c7a0"/>
    <g stroke="#172033" stroke-width="4" stroke-linecap="round" fill="none" opacity=".62"><path d="M96 102c7-4 14-4 21-1" /><path d="M132 101c7-3 15-3 21 1" /></g>
    <circle cx="103" cy="113" r="4.3" fill="#172033"/>
    <circle cx="141" cy="113" r="4.3" fill="#172033"/>
    
    <circle cx="91" cy="128" r="7" fill="#f59eae" opacity=".24"/>
    <circle cx="153" cy="128" r="7" fill="#f59eae" opacity=".24"/>
    
    <path d="M107 137c9 9 22 9 31 0" fill="none" stroke="#172033" stroke-width="4" stroke-linecap="round" opacity=".72"/>
    <path d="M122 116c-2 8-4 13-6 17 4 2 9 2 13 0" fill="none" stroke="#172033" stroke-width="2.5" stroke-linecap="round" stroke-linejoin="round" opacity=".28"/>
  </g>
  <text x="24" y="218" font-family="Inter, Arial, sans-serif" font-size="16" font-weight="800" fill="#7e22ce" opacity=".42">LX</text>
</svg>